<?xml version="1.0" encoding="utf-8"?>
<!-- Generator: Adobe Illustrator 18.1.1, SVG Export Plug-In . SVG Version: 6.00 Build 0)  -->
<svg version="1.1"
	 id="svg3069" sodipodi:docname="DIN_4844-2_Warnung_vor_optischer_Strahlung_D-W009.svg" inkscape:version="0.48.2 r9819" xmlns:dc="http://purl.org/dc/elements/1.1/" xmlns:cc="http://creativecommons.org/ns#" xmlns:inkscape="http://www.inkscape.org/namespaces/inkscape" xmlns:sodipodi="http://sodipodi.sourceforge.net/DTD/sodipodi-0.dtd" xmlns:rdf="http://www.w3.org/1999/02/22-rdf-syntax-ns#" xmlns:svg="http://www.w3.org/2000/svg"
	 xmlns="http://www.w3.org/2000/svg" xmlns:xlink="http://www.w3.org/1999/xlink" x="0px" y="0px" viewBox="-179 18 600 525"
	 enable-background="new -179 18 600 525" xml:space="preserve">
<sodipodi:namedview  inkscape:current-layer="svg3069" inkscape:window-maximized="1" inkscape:window-y="-8" inkscape:window-x="-8" inkscape:window-height="718" inkscape:window-width="1360" inkscape:pageshadow="2" inkscape:pageopacity="0" gridtolerance="10" objecttolerance="10" borderopacity="1" pagecolor="#ffffff" id="namedview3083" inkscape:cy="262.5" inkscape:cx="300" showgrid="false" inkscape:zoom="0.95047619" guidetolerance="10" bordercolor="#666666">
	</sodipodi:namedview>
<g id="g4485">
	<path id="sign_border" inkscape:connector-curvature="0" d="M418.6,517.6L134.8,26c-2.9-5-8.2-8-13.9-8c-5.7,0-11,3.1-13.9,8
		l-283.8,491.6c-2.9,5-2.9,11.1,0,16c2.9,5,8.2,8,13.9,8h567.6c5.7,0,11-3.1,13.9-8C421.5,528.6,421.5,522.5,418.6,517.6
		L418.6,517.6z"/>
	<path id="polygon7" fill="#FFDC32" d="M-130.65,502.02L116.67,75.5c1.93-3.32,6.72-3.32,8.65,0l247.32,426.52
		c1.93,3.33-0.47,7.51-4.33,7.51h-494.64C-130.17,509.53-132.58,505.35-130.65,502.02z"/>
	<path id="path4433" inkscape:connector-curvature="0" d="M100.85,398.02l-46.8,81.1c42.6,24.6,91.1,24.6,133.7,0l-46.8-81.1
		c-0.3,0.2-0.6,0.4-0.9,0.6c-1.1,0.6-2.3,1.2-3.5,1.7s-2.4,1-3.7,1.4c-1.3,0.4-2.5,0.7-3.8,1s-2.6,0.5-4,0.6
		c-1.3,0.1-2.7,0.2-4.1,0.2s-2.7-0.1-4.1-0.2c-1.3-0.1-2.7-0.3-4-0.6c-1.3-0.3-2.6-0.6-3.8-1c-1.3-0.4-2.5-0.8-3.7-1.4
		c-1.2-0.5-2.4-1.1-3.5-1.7C101.45,398.42,101.15,398.22,100.85,398.02z"/>
	<path id="path4435" inkscape:connector-curvature="0" d="M54.05,247.52c-42.6,24.6-66.8,66.6-66.8,115.8h93.6
		c0-1.4,0.1-2.8,0.2-4.1c0.1-1.3,0.4-2.7,0.6-4c0.3-1.3,0.6-2.6,1-3.8c0.4-1.3,0.8-2.5,1.4-3.7c0.5-1.2,1.1-2.4,1.7-3.5
		s1.3-2.2,2-3.3c0.7-1.1,1.5-2.1,2.3-3.1c0.81-1.01,1.72-1.92,2.64-2.84c0.91-0.91,1.86-1.76,2.86-2.56c1-0.8,2-1.6,3.1-2.3
		c0.8-0.5,1.6-1,2.4-1.5L54.05,247.52L54.05,247.52z"/>
	<path id="path4437" inkscape:connector-curvature="0" d="M187.75,247.52l-46.8,81.1c0.8,0.5,1.6,0.9,2.4,1.5
		c1.1,0.7,2.1,1.5,3.1,2.3s1.9,1.7,2.9,2.6c0.9,0.9,1.8,1.9,2.6,2.8c0.8,1,1.6,2,2.3,3.1c0.7,1.1,1.4,2.2,2,3.3
		c0.6,1.1,1.2,2.3,1.7,3.5s1,2.4,1.4,3.7c0.4,1.3,0.7,2.5,1,3.8s0.5,2.6,0.6,4c0.1,1.3,0.2,2.7,0.2,4.1h93.6
		C254.55,314.12,230.35,272.12,187.75,247.52L187.75,247.52z"/>
	
		<circle id="circle4439" sodipodi:rx="26.700001" sodipodi:ry="26.700001" sodipodi:cy="343.60001" sodipodi:cx="299.79999" cx="120.85" cy="363.32" r="26.7">
	</circle>
</g>
</svg>
