<svg xmlns:rdf="http://www.w3.org/1999/02/22-rdf-syntax-ns#" xmlns="http://www.w3.org/2000/svg" height="595.05" width="1817.7" version="1.1" xmlns:cc="http://creativecommons.org/ns#" xmlns:dc="http://purl.org/dc/elements/1.1/" viewBox="0 0 480.93534 157.44088">
 <g transform="translate(-11.052 -45.103)" stroke="#000" stroke-miterlimit="1.9" stroke-width="1.5044" fill="none">
  <path d="m45.156 140.69s-15.583 39.377-16.844 49.04c0 0 2.4588 2.7373 2.072 5.151-0.40843 2.5488-1.2186 3.2773-2.2965 4.1347-0.79067 0.62892-2.3358 1.0535-3.8761-0.13315-0.77498-0.59706-0.69863-3.0293-0.80785-3.0864-0.21473-0.11224-2.4203 1.312-3.1204 1.4284-1.3812 0.22964-3.0153-0.76284-3.0673-2.611-0.05196-1.8482 0.91931-4.1144 2.334-5.1948s3.3381-1.3224 3.3381-1.3224c2.9043-14.049 14.143-35.947 16.538-50.756 0 0-2.1114-4.837-1.2147-7.6764 0.73881-2.3392 1.271-3.2564 4.0277-3.5738 2.7567-0.31749 2.9877 4.451 3.3775 4.62 0.58376 0.25321 4.5788-1.2814 5.9478 1.0376 1.0764 1.8233 0.89898 4.4936-0.4023 5.8625s-6.0054 3.08-6.0054 3.08z"/>
  <path d="m59.084 115.83s21.008-53.912 22.778-57.465c0 0-2.3574-2.8251-1.8829-5.2231 0.50106-2.5322 1.3373-3.2307 2.4457-4.0483 0.81307-0.59968 2.3727-0.96761 3.8687 0.27435 0.7527 0.62491 0.58774 3.0527 0.69481 3.1138 0.2105 0.11999 2.4665-1.2229 3.1704-1.3137 1.3886-0.17914 2.9855 0.87225 2.9701 2.7211-0.01545 1.8489-1.0687 4.0781-2.5218 5.1062s-3.384 1.1998-3.384 1.1998c-3.6544 10.143-19.159 47.899-22.534 59.191 0 0 1.9337 4.9107 0.93404 7.7155-0.82359 2.3108-1.3888 3.2079-4.1553 3.4246-2.7665 0.21679-2.8235-4.5569-3.2069-4.7401-0.57414-0.27432-4.6225 1.1136-5.9061-1.2537-1.0092-1.8614-0.73458-4.5234 0.61573-5.844 1.3503-1.3205 6.1136-2.859 6.1136-2.859z"/>
  <path d="m39.325 107.05s-15.585-43.329-15.971-47.28c0 0-4.0169-0.34993-4.8874-2.6342-0.91922-2.412-1.3849-3.3661-0.87934-4.6472 0.37085-0.93977 1.1376-2.6355 3.0647-2.3769 0.96961 0.13016 2.472 1.8608 2.5951 1.8557 0.24209-0.01002 0.9366-2.6433 1.485-3.0939 1.0818-0.8888 3.0597-1.53 4.0279 0.04518 0.96815 1.5752 2.2145 3.8435 1.5286 5.486-0.68593 1.6426-1.7201 3.1516-1.7201 3.1516 2.2859 10.536 10.01 37.664 16.975 47.171 0 0 4.575 2.4567 6.9101 4.3043 1.9238 1.5221 1.7315 2.5921 1.0482 5.2816-0.68325 2.6895-5.397 0.27521-5.6936 0.57942-0.44419 0.45562-1.2472 4.1527-3.9013 4.6079-2.0869 0.3579-4.0385-1.6072-4.8554-3.3101-0.81686-1.7029 0.27328-9.1414 0.27328-9.1414z"/>
  <path d="m80.628 184.3c0.000021 0.00009-11.901-25.9-15.47-40.377 0 0-4.0743-0.59591-5.4692-2.954-1.473-2.49-1.2975-3.6992-0.98401-5.2114 0.22997-1.1093 1.2552-2.5835 3.4295-2.6655 1.094-0.0412 2.7692 2.1102 2.904 2.081 0.26505-0.0573 1.1428-2.867 1.6618-3.4695 1.0237-1.1886 3.1398-1.5052 4.5073 0.0507 1.3676 1.5559 2.1541 4.2061 1.7106 6.1521-0.44358 1.946-1.9249 3.5342-1.9249 3.5342 4.5271 11.207 8.1626 23.013 16.269 42.619 0 0 4.5324 3.6436 5.1979 6.2656 0.5483 2.1601 1.2958 3.6103-0.67275 5.3425-1.9685 1.7322-5.2049-1.3315-5.5853-1.2476-0.5698 0.12573-2.9968 4.1438-5.1565 3.1407-1.6981-0.78871-3.9095-2.9388-3.5621-4.6736 0.34741-1.7348 3.1451-8.5877 3.1451-8.5877z"/>
  <path d="m152.13 185.93s0.29729-122.39 1.3436-126.22c0 0-3.6291-1.7573-3.6292-4.2018-0.00013-2.5813-0.0956-3.6386 0.83301-4.6558 0.68115-0.74614 2.0015-2.0578 3.7102-1.1299 0.85971 0.46688 1.6474 2.619 1.7643 2.6582 0.22979 0.0769 1.8164-2.1366 2.4893-2.3623 1.3274-0.44535 3.404-0.34029 3.7478 1.4764 0.34384 1.8167 0.70087 4.3801-0.52495 5.6708s-2.7295 2.3326-2.7295 2.3326c-1.6155 10.66-3.4904 115.11-0.36658 126.48 0 0 3.4004 3.9247 4.9246 6.4826 1.2557 2.1074 0.69501 3.0388-0.90112 5.3087-1.5961 2.27-5.1412-1.6645-5.5267-1.4858-0.57731 0.2676-2.6441 3.4365-5.2864 2.9168-2.0775-0.40862-3.2016-2.9398-3.3585-4.822-0.15697-1.8822 3.5103-8.445 3.5103-8.445z"/>
  <path d="m206.03 89.164c1.0757-14.298-0.37425-33.402-28.417-31.335 0 0-1.6726 3.6689-4.1164 3.7257-2.5806 0.06-3.6354 0.17997-4.6738-0.72479-0.76174-0.66368-2.1036-1.9532-1.2156-3.683 0.4468-0.8703 2.5801-1.7077 2.6165-1.8254 0.0715-0.23151-2.1782-1.7664-2.4194-2.4338-0.47602-1.3167-0.41915-3.3952 1.3891-3.781 1.8082-0.38588 4.3627-0.80228 5.6814 0.39328 1.3188 1.1956 2.3953 2.6747 2.3953 2.6747 20.522-1.656 38.062 7.6796 35.386 37.398 0 0 4.3824 3.2369 4.561 6.7434 0.12485 2.45 0.32658 4.4755-1.1914 5.2512-2.471 1.2627-5.042-1.9444-5.4368-1.7872-0.59114 0.23548-2.8289 3.286-5.4386 2.622-2.052-0.52213-3.0352-3.1112-3.0886-4.9992-0.15023-5.9512 3.9689-8.2393 3.9689-8.2393z"/>
  <path d="m169.56 118.41c11.793 0.90705 22.7 1.3825 30.991-4.3101 0 0-2.4667-3.1896-1.3782-5.3783 1.1494-2.3112 1.5348-3.3004 2.8193-3.7976 0.94218-0.36471 2.7085-0.95107 3.8251 0.64066 0.56183 0.80087 0.30861 3.0786 0.39585 3.1657 0.17152 0.17115 2.5779-1.1041 3.2809-1.0065 1.3868 0.1924 3.1993 1.2113 2.6981 2.991-0.50121 1.7797-1.3231 4.2339-2.9955 4.8436-1.6723 0.60969-3.4827 0.8729-3.4827 0.8729-9.369 7.0547-15.078 9.8974-37.17 7.505 0 0-2.8797 3.2946-5.508 3.0185-1.8364-0.19289-3.3652-0.26947-3.7792-1.6414-0.67384-2.2332 1.9889-4.007 1.9144-4.3583-0.11166-0.52615-2.1409-2.7805-1.3662-4.8961 0.60914-1.6634 2.6413-2.1761 4.0518-1.9914 4.4442 0.59736 5.7039 4.3424 5.7039 4.3424z"/>
  <path d="m210.21 185.61c0.00002 0.00009-12.401-32.315-15.97-46.792 0 0-4.0743-0.59591-5.4692-2.954-1.473-2.49-1.2975-3.6992-0.98401-5.2114 0.22997-1.1093 1.2552-2.5835 3.4295-2.6655 1.094-0.0412 2.7692 2.1102 2.904 2.081 0.26504-0.0573 1.1428-2.867 1.6618-3.4695 1.0237-1.1886 3.1398-1.5052 4.5073 0.0507 1.3676 1.5559 2.1541 4.2061 1.7106 6.1521-0.44359 1.946-1.9249 3.5342-1.9249 3.5342 4.5271 11.207 7.871 29.502 16.754 48.77 0 0 4.6742 3.4598 5.4439 6.0531 0.6341 2.1365 1.4389 3.5557-0.45895 5.3651s-5.2539-1.1227-5.6307-1.0236c-0.56433 0.14837-2.829 4.2601-5.027 3.344-1.7282-0.7203-4.0237-2.7804-3.7459-4.5276 0.27789-1.7473 2.7998-8.7064 2.7998-8.7064z"/>
  <path d="m240.86 184.85s25.452-119.71 27.263-123.25c0 0-3.1903-2.4658-2.6878-4.8581 0.53054-2.5262 0.65447-3.5805 1.7724-4.3851 0.82-0.59017 2.3818-1.6023 3.8632-0.34301 0.74536 0.63365 1.0738 2.9018 1.1801 2.9641 0.20907 0.1225 2.2168-1.7175 2.9218-1.8001 1.3906-0.16295 3.4012 0.36678 3.3642 2.2154s-0.21458 4.4306-1.6796 5.4417-3.1508 1.7216-3.1508 1.7216c-3.7724 10.1-27.081 111.93-26.36 123.7 0 0 2.5209 4.5399 3.4867 7.3566 0.79566 2.3205 0.0554 3.1167-1.9733 5.0101s-4.6892-2.6859-5.1032-2.5903c-0.61999 0.1432-3.2941 2.8195-5.7731 1.7677-1.9492-0.827-2.5288-3.5352-2.2955-5.4094 0.23333-1.8742 5.1715-7.5429 5.1715-7.5429z"/>
  <path d="m301.45 186.77s-21.639-107.86-21.383-111.82c0 0-3.908-0.99276-4.399-3.3874-0.51845-2.5287-0.82429-3.5453-0.11886-4.7282 0.51745-0.86772 1.5475-2.4178 3.4077-1.8519 0.93594 0.28474 2.1397 2.2349 2.2621 2.2497 0.24054 0.02919 1.3504-2.4578 1.9642-2.8141 1.2109-0.70283 3.2663-1.0169 3.9679 0.69376 0.70162 1.7106 1.5661 4.1501 0.62446 5.6607-0.9417 1.5105-2.2056 2.8332-2.2056 2.8332 0.5579 10.767 17.05 101.37 22.392 111.88 0 0 4.1192 3.162 6.126 5.3617 1.6533 1.8123 1.291 2.8373 0.18325 5.3815s-5.3708-0.59821-5.7125-0.34577c-0.51181 0.37807-1.9002 3.8974-4.593 3.9189-2.1173 0.0169-3.7267-2.237-4.2584-4.0493-0.53171-1.8123 1.743-8.9778 1.743-8.9778z"/>
  <path d="m281.55 156.22c-3.5825 0.44889-5.4281-0.91739-15.12 0.0179 0 0-1.9919 3.2548-4.5369 3.1792-2.6874-0.0798-3.7572-0.11726-4.8273-1.0232-0.78491-0.66454-1.9728-1.9532-1.0271-3.5334 0.47587-0.79508 2.809-1.4045 2.8483-1.5134 0.0773-0.21401-2.1213-1.8138-2.3643-2.4544-0.4794-1.2637-0.19132-3.1651 1.696-3.4326 1.8873-0.26749 4.5415-0.40656 5.8998 0.7877s2.3233 2.6779 2.3233 2.6779c4.4353-1.6231 10.097 1.1484 16.311 0.41957 0 0 3.4284-3.6519 5.2365-3.6034 1.4896 0.04 2.3886 0.0585 3.2065 1.9734 0.81792 1.9151-2.0314 3.6178-2.0363 3.9336-0.007 0.47283 1.8072 3.3324 0.81756 4.8035-0.77813 1.1566-2.6625 2.098-3.7357 1.4499-1.0731-0.64808-3.3552-3.0142-3.3552-3.0142z"/>
  <path d="m331.45 59.263s22.301 67.793 23.2 71.66c0 0 3.6168 0.67631 4.7784 2.8272 1.2266 2.2712 1.0269 3.3424 0.69311 4.6786-0.24484 0.98018-1.2128 2.2572-3.1571 2.2527-0.9783-0.002-2.3975-1.979-2.519-1.9579-0.23868 0.0416-1.1225 2.5138-1.6073 3.0321-0.95638 1.0226-2.8571 1.2292-4.0229-0.20594s-1.7737-3.8246-1.3084-5.5427c0.46535-1.7181 1.8445-3.0804 1.8445-3.0804-3.6434-10.147-19.898-61.98-24.488-72.835 0 0-4.6186-2.554-5.6345-5.353-0.83693-2.306-0.97258-3.3576 1.022-5.2868s5.0792 1.7145 5.4914 1.6115c0.61734-0.15422 2.8542-3.8028 5.3515-2.7954 1.9636 0.79211 3.4475 3.0193 3.2476 4.8973-0.19984 1.8781-2.892 6.0981-2.892 6.0981z"/>
  <path d="m372.29 124.08s17.804-59.434 18.678-63.307c0 0 3.6124-0.6995 4.7602-2.8578 1.212-2.279 1.0054-3.3489 0.66308-4.683-0.25113-0.97859-1.2272-2.2494-3.1715-2.2324-0.97827 0.0083-2.3848 1.9944-2.5064 1.974-0.23894-0.04007-1.1386-2.5065-1.6267-3.0217-0.96292-1.0164-2.865-1.2108-4.0214 0.23175-1.1566 1.4426-1.7492 3.8359-1.2728 5.551 0.47636 1.7151 1.8643 3.0685 1.8643 3.0685-3.5782 10.17-17.465 52.231-18.957 62.475 0 0-5.2244 0.66295-6.5887 3.1842-0.62962 1.1635-2.3112 3.0965-0.66966 5.1839 1.747 2.2216 5.116-0.11957 5.347 0.21624 0.34581 0.50295 1.5288 3.3797 3.9098 4.2304 1.8739 0.66956 3.0977-0.86085 4.3376-3.5036 0.77374-1.6491-0.74579-6.5098-0.74579-6.5098z"/>
  <path d="m355.58 189.05c-0.85226-3.5085 2.1952-25.317 1.396-35.026 0 0-3.4428-2.0549-3.3088-4.5979 0.14143-2.6854 0.20388-3.7542 1.1959-4.8065 0.72775-0.77182 2.132-1.9344 3.8039-0.95809 0.84123 0.49125 1.445 2.8358 1.5607 2.8772 0.22749 0.0815 1.986-2.0856 2.6768-2.3161 1.3628-0.45471 3.3922-0.12968 3.6392 1.7625 0.24701 1.8922 0.34058 4.5486-0.96621 5.8834s-2.9151 2.2708-2.9151 2.2708c1.6451 4.4661-3.5316 29.461-2.1028 35.553 0 0 4.0171 2.9921 4.174 4.7941 0.12924 1.4846 0.21273 2.3799-1.5971 3.4096-1.81 1.0298-3.8249-1.608-4.1391-1.5771-0.47058 0.0466-3.106 2.1734-4.6798 1.357-1.2374-0.64194-2.3864-2.4074-1.8642-3.5471 0.52221-1.1397 2.6142-3.6754 2.6142-3.6754z"/>
  <path d="m473.08 72.69c-4.1777-13.716-23.684-25.122-41.698-8.9671 0 0 0.20532 3.5476-1.4295 5.3649-1.7263 1.9191-2.9462 1.7975-4.3168 1.9326-1.0054 0.09913-2.3728-0.59767-3.0225-2.4303-0.32689-0.92206 1.2644-2.8473 1.2036-2.9546-0.1194-0.21084-2.7026-0.44519-3.3538-0.72739-1.2847-0.5567-1.8491-2.3481-0.88971-3.9286 0.95941-1.5805 3.2077-2.619 4.9823-2.7586 1.7745-0.13967 3.4645 0.94271 3.4645 0.94271 12.87-16.07 40.464-14.422 51.383 11.507 0 0 5.2574 1.4292 6.6943 4.6327 1.004 2.2383 1.9259 4.0531 0.79211 5.3261-1.8456 2.0722-5.404 0.01448-5.7149 0.30402-0.46565 0.43366-1.4461 4.0877-4.1191 4.4143-2.1017 0.25678-3.9562-1.8002-4.69-3.5405-2.2962-5.4924 0.71409-9.1175 0.71409-9.1175z"/>
  <path d="m423.82 86.805c4.4827 13.836 26.458 30.114 44.134 46.637 0 0 3.5158-0.51637 5.4698 0.95235 2.0634 1.5509 2.0495 2.7768 2.3046 4.1303 0.1871 0.99281-0.38677 2.4162-2.1552 3.2245-0.88976 0.40668-2.9475-1.0092-3.0489-0.93927-0.19951 0.13748-0.2059 2.7313-0.42977 3.4048-0.44161 1.3286-2.1765 2.0484-3.8352 1.2316-1.6588-0.81675-2.8908-2.9651-3.1859-4.7205-0.29511-1.7554 0.63453-3.5339 0.63453-3.5339-17.139-11.408-36.95-22.549-48.123-50.827 0 0-2.5558-5.1195-1.907-8.5701 0.45333-2.4109 0.73238-4.4273 2.39-4.8252 2.6983-0.64783 4.4453 3.0729 4.8658 3.0127 0.62989-0.09026 3.5208-2.5308 5.9019-1.2731 1.8722 0.9889 2.2207 3.7364 1.8297 5.5842-0.95894 4.9764-1.2731 4.3677-4.846 6.5115z"/>
  <path d="m457.51 188.35c11.135-2.1335 26.721-16.291 18.395-32.193 0 0-3.5457-0.23437-5.1473-2.0811-1.6912-1.9501-1.4199-3.1456-1.3847-4.5225 0.0258-1.01 0.88613-2.2808 2.7849-2.6993 0.95538-0.21052 2.6694 1.6064 2.7833 1.5593 0.22396-0.0925 0.77554-2.6269 1.136-3.2383 0.7111-1.2061 2.5585-1.545 4.0084-0.39772 1.45 1.1473 2.2028 3.5066 2.1222 5.2848s-1.3634 3.3215-1.3634 3.3215c8.8765 16.457-0.76879 37.684-22.112 41.491 0 0-2.2116 4.0404-4.857 4.937-1.8484 0.62646-5.0648 0.67719-5.9501-0.43867-1.4411-1.8164 0.60027-5.2201 0.40408-5.5197-0.29386-0.44871-3.1206-1.7225-3.1158-4.0658 0.004-1.8425 2.093-2.6363 3.5256-3.0829 6.556-0.22685 4.9969 2.7125 8.7706 1.6456z"/>
  <path d="m432.56 190.58c-6.7034-5.153-12.495-14.152-13.475-23.123 0 0-3.7226 0.4841-4.4698-1.9499-0.7891-2.5702-1.0978-3.5952-0.58437-4.8998 0.37667-0.95699 1.2146-2.4963 3.0151-2.1093 0.90591 0.19476 2.2336 2.2077 2.3493 2.2099 0.2275 0.004 1.0349-2.592 1.5632-3.0283 1.0423-0.8605 2.9352-1.1995 3.7957 0.50145 0.86049 1.7009 1.8461 4.1692 1.1524 5.8396-0.69376 1.6703-2.2605 2.4944-2.2605 2.4944 2.6803 11.237 5.617 13.73 11.446 19.813 0 0 3.8299-1.8669 5.573-1.3838 1.436 0.39804 2.304 0.63279 2.636 2.6884 0.33194 2.0558-2.8438 3.0212-2.9248 3.3264-0.12082 0.45718 0.95026 3.6699-0.36493 4.8589-1.0341 0.93487-2.2373 1.4095-3.9751 0.50628-1.7378-0.90324-3.0899-3.6693-3.4761-5.7445z"/>
  <path d="m118.82 133.64c-2.4792-3.1449-2.0616-2.2434-5.1863-6.8506 0 0-2.5588 0.70907-3.8758-0.34663-1.3907-1.1148-1.6746-1.4278-1.8605-2.3119-0.13636-0.64853-0.22369-1.7725 0.94243-2.1902 0.58674-0.21014 2.0796 0.41583 2.1463 0.37673 0.13101-0.0769-0.36099-1.7617-0.22025-2.1815 0.27767-0.82813 1.2304-1.6705 2.3432-1.0506 1.1128 0.61993 2.578 1.6112 2.7953 2.7558 0.21734 1.1446 0.10451 2.2776 0.10451 2.2776 4.2362 4.8315 5.797 7.0692 5.797 7.0692s4.0565-0.42578 4.8121 0.28444c0.62248 0.58512 1.2891 1.5261 1.0044 2.7741-0.28472 1.2481-2.9413 1.3118-3.0479 1.4645-0.15946 0.22883-0.83291 3.0376-1.7421 3.3821-0.71484 0.27085-2.6686-0.17529-2.9121-0.89998-0.27486-1.2335-0.62099-3.4082-1.1002-4.5533z"/>
 </g>
</svg>
