<svg xmlns="http://www.w3.org/2000/svg" height="595.05" width="1817.7" viewBox="0 0 480.93534 157.44088"><g stroke="#000" stroke-miterlimit="1.9" stroke-width="1.504" fill="none"><path d="M34.104 95.587s-15.583 39.377-16.844 49.04c0 0 2.459 2.737 2.072 5.151-.408 2.549-1.219 3.277-2.296 4.135-.791.629-2.336 1.054-3.876-.133-.775-.597-.699-3.029-.808-3.086-.215-.112-2.42 1.312-3.12 1.428-1.381.23-3.015-.763-3.067-2.611-.052-1.848.919-4.114 2.334-5.195l3.338-1.322c2.904-14.049 14.143-35.947 16.538-50.756 0 0-2.111-4.837-1.215-7.676.739-2.339 1.271-3.256 4.028-3.574 2.757-.317 2.988 4.451 3.377 4.62.584.253 4.579-1.281 5.948 1.038 1.076 1.823.899 4.494-.402 5.862l-6.005 3.08zM48.032 70.727s21.008-53.912 22.778-57.465c0 0-2.357-2.825-1.883-5.223.501-2.532 1.337-3.231 2.446-4.048.813-.6 2.373-.968 3.869.274.753.625.588 3.053.695 3.114.21.12 2.466-1.223 3.17-1.314 1.389-.179 2.986.872 2.97 2.721-.015 1.849-1.069 4.078-2.522 5.106l-3.384 1.2c-3.654 10.143-19.159 47.899-22.534 59.191 0 0 1.934 4.911.934 7.715-.824 2.311-1.389 3.208-4.155 3.425-2.767.217-2.824-4.557-3.207-4.74-.574-.274-4.622 1.114-5.906-1.254-1.009-1.861-.735-4.523.616-5.844 1.35-1.321 6.114-2.859 6.114-2.859zM28.273 61.947s-15.585-43.329-15.971-47.28c0 0-4.017-.35-4.887-2.634-.919-2.412-1.385-3.366-.879-4.647.371-.94 1.138-2.635 3.065-2.377.97.13 2.472 1.861 2.595 1.856.242-.01.937-2.643 1.485-3.094 1.082-.889 3.06-1.53 4.028.045.968 1.575 2.215 3.844 1.529 5.486-.686 1.643-1.72 3.152-1.72 3.152 2.286 10.536 10.01 37.664 16.975 47.171 0 0 4.575 2.457 6.91 4.304 1.924 1.522 1.732 2.592 1.048 5.282-.683 2.689-5.397.275-5.694.579-.444.456-1.247 4.153-3.901 4.608-2.087.358-4.038-1.607-4.855-3.31-.817-1.703.273-9.141.273-9.141zM69.576 139.197s-11.901-25.9-15.47-40.377c0 0-4.074-.596-5.469-2.954-1.473-2.49-1.298-3.699-.984-5.211.23-1.109 1.255-2.583 3.429-2.666 1.094-.041 2.769 2.11 2.904 2.081.265-.057 1.143-2.867 1.662-3.47 1.024-1.189 3.14-1.505 4.507.051 1.368 1.556 2.154 4.206 1.711 6.152-.444 1.946-1.925 3.534-1.925 3.534 4.527 11.207 8.163 23.013 16.269 42.619 0 0 4.532 3.644 5.198 6.266.548 2.16 1.296 3.61-.673 5.343-1.968 1.732-5.205-1.331-5.585-1.248-.57.126-2.997 4.144-5.157 3.141-1.698-.789-3.909-2.939-3.562-4.674.347-1.735 3.145-8.588 3.145-8.588zM141.078 140.827s.297-122.39 1.344-126.22c0 0-3.629-1.757-3.629-4.202 0-2.581-.096-3.639.833-4.656.681-.746 2.002-2.058 3.71-1.13.86.467 1.647 2.619 1.764 2.658.23.077 1.816-2.137 2.489-2.362 1.327-.445 3.404-.34 3.748 1.476.344 1.817.701 4.38-.525 5.671l-2.729 2.333c-1.615 10.66-3.49 115.11-.367 126.48 0 0 3.4 3.925 4.925 6.483 1.256 2.107.695 3.039-.901 5.309s-5.141-1.665-5.527-1.486c-.577.268-2.644 3.437-5.286 2.917-2.078-.409-3.202-2.94-3.358-4.822-.157-1.882 3.51-8.445 3.51-8.445zM194.978 44.061c1.076-14.298-.374-33.402-28.417-31.335 0 0-1.673 3.669-4.116 3.726-2.581.06-3.635.18-4.674-.725-.762-.664-2.104-1.953-1.216-3.683.447-.87 2.58-1.708 2.616-1.825.071-.232-2.178-1.766-2.419-2.434-.476-1.317-.419-3.395 1.389-3.781 1.808-.386 4.363-.802 5.681.393 1.319 1.196 2.395 2.675 2.395 2.675 20.522-1.656 38.062 7.68 35.386 37.398 0 0 4.382 3.237 4.561 6.743.125 2.45.327 4.476-1.191 5.251-2.471 1.263-5.042-1.944-5.437-1.787-.591.235-2.829 3.286-5.439 2.622-2.052-.522-3.035-3.111-3.089-4.999-.15-5.951 3.969-8.239 3.969-8.239zM158.508 73.307c11.793.907 22.7 1.383 30.991-4.31 0 0-2.467-3.19-1.378-5.378 1.149-2.311 1.535-3.3 2.819-3.798.942-.365 2.708-.951 3.825.641.562.801.309 3.079.396 3.166.172.171 2.578-1.104 3.281-1.006 1.387.192 3.199 1.211 2.698 2.991-.501 1.78-1.323 4.234-2.995 4.844-1.672.61-3.483.873-3.483.873-9.369 7.055-15.078 9.897-37.17 7.505 0 0-2.88 3.295-5.508 3.018-1.836-.193-3.365-.269-3.779-1.641-.674-2.233 1.989-4.007 1.914-4.358-.112-.526-2.141-2.78-1.366-4.896.609-1.663 2.641-2.176 4.052-1.991 4.444.597 5.704 4.342 5.704 4.342zM199.158 140.507s-12.401-32.315-15.97-46.792c0 0-4.074-.596-5.469-2.954-1.473-2.49-1.298-3.699-.984-5.211.23-1.109 1.255-2.583 3.429-2.666 1.094-.041 2.769 2.11 2.904 2.081.265-.057 1.143-2.867 1.662-3.47 1.024-1.189 3.14-1.505 4.507.051 1.368 1.556 2.154 4.206 1.711 6.152-.444 1.946-1.925 3.534-1.925 3.534 4.527 11.207 7.871 29.502 16.754 48.77 0 0 4.674 3.46 5.444 6.053.634 2.136 1.439 3.556-.459 5.365s-5.254-1.123-5.631-1.024c-.564.148-2.829 4.26-5.027 3.344-1.728-.72-4.024-2.78-3.746-4.528.278-1.747 2.8-8.706 2.8-8.706zM229.808 139.747s25.452-119.71 27.263-123.25c0 0-3.19-2.466-2.688-4.858.531-2.526.654-3.58 1.772-4.385.82-.59 2.382-1.602 3.863-.343.745.634 1.074 2.902 1.18 2.964.209.122 2.217-1.718 2.922-1.8 1.391-.163 3.401.367 3.364 2.215s-.215 4.431-1.68 5.442l-3.151 1.722c-3.772 10.1-27.081 111.93-26.36 123.7 0 0 2.521 4.54 3.487 7.357.796 2.321.055 3.117-1.973 5.01s-4.689-2.686-5.103-2.59c-.62.143-3.294 2.82-5.773 1.768-1.949-.827-2.529-3.535-2.296-5.409.233-1.874 5.171-7.543 5.171-7.543zM290.398 141.667s-21.639-107.86-21.383-111.82c0 0-3.908-.993-4.399-3.387-.518-2.529-.824-3.545-.119-4.728.517-.868 1.548-2.418 3.408-1.852.936.285 2.14 2.235 2.262 2.25.241.029 1.35-2.458 1.964-2.814 1.211-.703 3.266-1.017 3.968.694.702 1.711 1.566 4.15.624 5.661-.942 1.51-2.206 2.833-2.206 2.833.558 10.767 17.05 101.37 22.392 111.88 0 0 4.119 3.162 6.126 5.362 1.653 1.812 1.291 2.837.183 5.381s-5.371-.598-5.713-.346c-.512.378-1.9 3.897-4.593 3.919-2.117.017-3.727-2.237-4.258-4.049-.532-1.812 1.743-8.978 1.743-8.978zM270.498 111.117c-3.583.449-5.428-.917-15.12.018 0 0-1.992 3.255-4.537 3.179-2.687-.08-3.757-.117-4.827-1.023-.785-.665-1.973-1.953-1.027-3.533.476-.795 2.809-1.405 2.848-1.513.077-.214-2.121-1.814-2.364-2.454-.479-1.264-.191-3.165 1.696-3.433 1.887-.267 4.542-.407 5.9.788l2.323 2.678c4.435-1.623 10.097 1.148 16.311.42 0 0 3.428-3.652 5.237-3.603 1.49.04 2.389.059 3.207 1.973.818 1.915-2.031 3.618-2.036 3.934-.007.473 1.807 3.332.818 4.803-.778 1.157-2.663 2.098-3.736 1.45-1.073-.648-3.355-3.014-3.355-3.014zM320.398 14.16s22.301 67.793 23.2 71.66c0 0 3.617.676 4.778 2.827 1.227 2.271 1.027 3.342.693 4.679-.245.98-1.213 2.257-3.157 2.253-.978-.002-2.397-1.979-2.519-1.958-.239.042-1.123 2.514-1.607 3.032-.956 1.023-2.857 1.229-4.023-.206s-1.774-3.825-1.308-5.543c.465-1.718 1.845-3.08 1.845-3.08-3.643-10.147-19.898-61.98-24.488-72.835 0 0-4.619-2.554-5.635-5.353-.837-2.306-.973-3.358 1.022-5.287s5.079 1.714 5.491 1.611c.617-.154 2.854-3.803 5.351-2.795 1.964.792 3.447 3.019 3.248 4.897-.2 1.878-2.892 6.098-2.892 6.098zM361.238 78.977s17.804-59.434 18.678-63.307c0 0 3.612-.7 4.76-2.858 1.212-2.279 1.005-3.349.663-4.683-.251-.979-1.227-2.249-3.171-2.232-.978.008-2.385 1.994-2.506 1.974-.239-.04-1.139-2.506-1.627-3.022-.963-1.016-2.865-1.211-4.021.232-1.157 1.443-1.749 3.836-1.273 5.551.476 1.715 1.864 3.068 1.864 3.068-3.578 10.17-17.465 52.231-18.957 62.475 0 0-5.224.663-6.589 3.184-.63 1.163-2.311 3.096-.67 5.184 1.747 2.222 5.116-.12 5.347.216.346.503 1.529 3.38 3.91 4.23 1.874.67 3.098-.861 4.338-3.504.774-1.649-.746-6.51-.746-6.51zM344.528 143.947c-.852-3.509 2.195-25.317 1.396-35.026 0 0-3.443-2.055-3.309-4.598.141-2.685.204-3.754 1.196-4.806.728-.772 2.132-1.934 3.804-.958.841.491 1.445 2.836 1.561 2.877.227.082 1.986-2.086 2.677-2.316 1.363-.455 3.392-.13 3.639 1.762.247 1.892.341 4.549-.966 5.883l-2.915 2.271c1.645 4.466-3.532 29.461-2.103 35.553 0 0 4.017 2.992 4.174 4.794.129 1.485.213 2.38-1.597 3.41-1.81 1.03-3.825-1.608-4.139-1.577-.471.047-3.106 2.173-4.68 1.357-1.237-.642-2.386-2.407-1.864-3.547.522-1.14 2.614-3.675 2.614-3.675zM462.028 27.587c-4.178-13.716-23.684-25.122-41.698-8.967 0 0 .205 3.548-1.429 5.365-1.726 1.919-2.946 1.798-4.317 1.933-1.005.099-2.373-.598-3.022-2.43-.327-.922 1.264-2.847 1.204-2.955-.119-.211-2.703-.445-3.354-.727-1.285-.557-1.849-2.348-.89-3.929s3.208-2.619 4.982-2.759c1.774-.14 3.465.943 3.465.943 12.87-16.07 40.464-14.422 51.383 11.507 0 0 5.257 1.429 6.694 4.633 1.004 2.238 1.926 4.053.792 5.326-1.846 2.072-5.404.014-5.715.304-.466.434-1.446 4.088-4.119 4.414-2.102.257-3.956-1.8-4.69-3.541-2.296-5.492.714-9.117.714-9.117zM412.768 41.702c4.483 13.836 26.458 30.114 44.134 46.637 0 0 3.516-.516 5.47.952 2.063 1.551 2.05 2.777 2.305 4.13.187.993-.387 2.416-2.155 3.224-.89.407-2.947-1.009-3.049-.939-.2.137-.206 2.731-.43 3.405-.442 1.329-2.176 2.048-3.835 1.232-1.659-.817-2.891-2.965-3.186-4.721-.295-1.755.635-3.534.635-3.534-17.139-11.408-36.95-22.549-48.123-50.827 0 0-2.556-5.12-1.907-8.57.453-2.411.732-4.427 2.39-4.825 2.698-.648 4.445 3.073 4.866 3.013.63-.09 3.521-2.531 5.902-1.273 1.872.989 2.221 3.736 1.83 5.584-.959 4.976-1.273 4.368-4.846 6.511zM446.458 143.247c11.135-2.134 26.721-16.291 18.395-32.193 0 0-3.546-.234-5.147-2.081-1.691-1.95-1.42-3.146-1.385-4.522.026-1.01.886-2.281 2.785-2.699.955-.211 2.669 1.606 2.783 1.559.224-.092.776-2.627 1.136-3.238.711-1.206 2.558-1.545 4.008-.398 1.45 1.147 2.203 3.507 2.122 5.285l-1.363 3.321c8.877 16.457-.769 37.684-22.112 41.491 0 0-2.212 4.04-4.857 4.937-1.848.626-5.065.677-5.95-.439-1.441-1.816.6-5.22.404-5.52-.294-.449-3.121-1.722-3.116-4.066.004-1.843 2.093-2.636 3.526-3.083 6.556-.227 4.997 2.712 8.771 1.646zM421.508 145.477c-6.703-5.153-12.495-14.152-13.475-23.123 0 0-3.723.484-4.47-1.95-.789-2.57-1.098-3.595-.584-4.9.377-.957 1.215-2.496 3.015-2.109.906.195 2.234 2.208 2.349 2.21.228.004 1.035-2.592 1.563-3.028 1.042-.861 2.935-1.2 3.796.501.86 1.701 1.846 4.169 1.152 5.84-.694 1.67-2.26 2.494-2.26 2.494 2.68 11.237 5.617 13.73 11.446 19.813 0 0 3.83-1.867 5.573-1.384 1.436.398 2.304.633 2.636 2.688.332 2.056-2.844 3.021-2.925 3.326-.121.457.95 3.67-.365 4.859-1.034.935-2.237 1.409-3.975.506s-3.09-3.669-3.476-5.745zM107.768 88.537c-2.479-3.145-2.062-2.243-5.186-6.851 0 0-2.559.709-3.876-.347-1.391-1.115-1.675-1.428-1.861-2.312-.136-.649-.224-1.772.942-2.19.587-.21 2.08.416 2.146.377.131-.077-.361-1.762-.22-2.182.278-.828 1.23-1.671 2.343-1.051 1.113.62 2.578 1.611 2.795 2.756.217 1.145.105 2.278.105 2.278 4.236 4.832 5.797 7.069 5.797 7.069s4.056-.426 4.812.284c.622.585 1.289 1.526 1.004 2.774-.285 1.248-2.941 1.312-3.048 1.464-.159.229-.833 3.038-1.742 3.382-.715.271-2.669-.175-2.912-.9-.275-1.234-.621-3.408-1.1-4.553z"/></g></svg>