<svg xmlns="http://www.w3.org/2000/svg" viewBox="452.25 -1.19 1498.62 479.7" enable-background="new 452.25 -1.19 1498.62 479.7"><g stroke="#000" stroke-width="5" stroke-miterlimit="1.9" fill="none"><path d="M541.198 291.397s-45.85 122.83-52.5 152.97c-.04.2.07.4.21.54 1.35 1.35 7.87 4.71 7.37 11.78-.58 8.26-2.52 8.64-5.7 11.68-2.33 2.23-6 6.25-11.21 2.88-2.62-1.7-4.9-5.96-5.27-6.11-.71-.3-6.59 5.16-8.78 5.73-4.31 1.12-9.77-1.61-10.45-7.5-.68-5.9 1.77-13.41 5.95-17.26 3.8-3.49 9.13-4.89 10.07-5.12.09-.02.13-.1.16-.19 14.36-44.65 44.3-112.69 51.91-160.17 0 0-5.13-13.94-2.28-23.05 2.35-7.51 5.47-9.21 10.41-10.15 8.77-1.02 10.33 11.38 11.57 11.92 1.86.81 14.57-4.11 18.92 3.33 3.42 5.85 2.86 14.42-1.28 18.82s-19.1 9.9-19.1 9.9z"/><path d="M585.508 211.577s63.02-167.33 68.65-178.73c0 0-7.5-9.07-5.99-16.76 1.59-8.13 4.26-10.37 7.78-12.99 2.59-1.92 7.55-3.11 12.31.88 2.39 2.01 1.87 9.8 2.21 9.99.67.39 7.85-3.93 10.09-4.22 4.42-.58 9.5 2.8 9.45 8.73-.05 5.93-3.4 13.09-8.02 16.39-4.62 3.3-10.77 3.85-10.77 3.85-11.63 32.56-57.14 148.03-67.88 184.27 0 0 6.15 15.76 2.97 24.77-2.62 7.42-4.42 10.3-13.22 10.99-8.8.7-8.98-14.63-10.2-15.21-1.83-.88-14.71 3.57-18.79-4.02-3.21-5.97-2.34-14.52 1.96-18.76 4.3-4.24 19.45-9.18 19.45-9.18z"/><path d="M526.478 183.417s-39.85-107.13-48.99-139.41c-1.21-4.27-9.35-9.6-13.03-12.07-3.1-2.08-6.3-5.14-6.68-9.04-.8-8.24-1.43-11.58 1.2-15.13 1.93-2.6 5.71-7.22 11.41-4.81 2.87 1.21 6.03 7.82 6.41 7.91.75.17 5.1-7.41 7.16-8.35 4.07-1.85 10.68-2.19 12.33 3.49 1.65 5.69 3.57 13.75.09 18.27-1.4 1.81-2.94 3.5-4.3 4.89-2.36 2.41 31.66 112.73 52.17 143.87 1.2 1.83 2.81 3.35 4.71 4.42 4.56 2.57 11.53 5.6 13.84 7.97 3.55 3.63 8.28 8.71 6.11 17.34-2.17 8.63-14.5 4.84-15.44 5.82-1.41 1.46-3.97 13.33-12.41 14.79-6.64 1.15-12.85-5.16-15.45-10.62-2.6-5.47.87-29.34.87-29.34z"/><path d="M654.058 431.377s-37.87-83.13-49.22-129.6c0 0-10.9-1.91-15.34-9.48-4.69-7.99-4.13-11.87-3.13-16.73.73-3.56 3.99-8.29 10.91-8.56 3.48-.13 8.81 6.77 9.24 6.68.84-.18 3.64-9.2 5.29-11.14 3.26-3.82 9.99-4.83 14.34.16s6.85 13.5 5.44 19.75l-6.12 11.34c14.4 35.97 23.91 73.87 49.7 136.8 0 0 14.42 11.7 16.54 20.11 1.74 6.93 4.12 11.59-2.14 17.15-6.26 5.56-16.56-4.27-17.77-4-1.81.4-9.47 9.89-16.34 6.67-5.4-2.53-7.99-4.48-9.14-13.71-.71-5.63 7.74-25.44 7.74-25.44z"/><path d="M880.468 425.127s1.6-379.52 4.92-391.81c0 0-11.55-5.64-11.55-13.49 0-8.29-1.13-10.59 1.82-13.86 2.17-2.39 6.37-6.6 11.8-3.63 2.74 1.5 5.24 8.41 5.61 8.53.73.25 5.78-6.86 7.92-7.58 4.22-1.43 11.66-2.18 12.75 3.65 1.09 5.83 2.23 14.06-1.67 18.2-3.9 4.14-8.68 7.49-8.68 7.49-5.14 34.21-11.75 356.16-1.82 392.64 0 0 10.82 12.6 15.67 20.81 4 6.76 2.21 9.75-2.87 17.04-5.08 7.29-16.36-5.34-17.59-4.77-1.84.86-8.41 11.03-16.82 9.36-6.61-1.31-10.19-9.44-10.69-15.48-.46-6.04 11.2-27.11 11.2-27.1z"/><path d="M1050.788 124.677c3.42-45.89 1.08-102.78-88.14-96.14 0 0-5.32 11.78-13.1 11.96-8.21.19-11.57.58-14.87-2.33-2.42-2.13-6.69-6.27-3.87-11.82 1.42-2.79 8.21-5.48 8.33-5.86.23-.74-6.93-5.67-7.7-7.81-1.51-4.23-2.31-8.85 3.45-10.09 5.75-1.24 13.88-2.58 18.08 1.26 4.2 3.84 8.59 6.54 8.59 6.54 65.3-5.32 118.83 20.22 110.32 115.61 0 0 13.94 10.39 14.51 21.64.4 7.86 1.04 14.37-3.79 16.86-7.86 4.05-16.04-6.24-17.3-5.74-1.88.76-9 10.55-17.3 8.42-6.53-1.68-9.66-9.99-9.83-16.05-.49-19.11 12.62-26.45 12.62-26.45z"/><path d="M937.028 219.877c37.52 2.91 69 2.53 95.38-15.74 0 0-7.1-10.38-5.83-18 1.44-8.63 4.06-11.19 8.15-12.78 3-1.17 9.18-.45 12.74 4.66 1.79 2.57.92 8.1 1.2 8.38.55.55 9.97-3.04 12.21-2.72 4.41.62 10.18 3.89 8.58 9.6-1.59 5.71-4.21 13.59-9.53 15.55-5.32 1.96-11.08 2.8-11.08 2.8-29.81 22.64-44.75 33.67-115.04 25.99 0 0-7.49 11.69-15.86 10.8-5.84-.62-8.89-1.08-10.21-5.48-2.14-7.17 4.52-12.65 4.28-13.78-.36-1.69-6.81-8.92-4.35-15.72 1.94-5.34 8.4-6.98 12.89-6.39 14.13 1.93 16.47 12.83 16.47 12.83z"/><path d="M1058.508 429.137c-17.06-37.38-31.61-97.28-42.97-143.74 0 0-16.83-.25-21.27-7.82-4.69-7.99-4.13-11.87-3.13-16.73.73-3.56 3.99-8.29 10.91-8.56 3.48-.13 8.81 6.77 9.24 6.68.84-.18 3.64-9.2 5.29-11.14 3.26-3.82 9.99-4.83 14.34.16s6.85 13.5 5.44 19.75c-1.41 6.25-6.12 11.34-6.12 11.34 14.4 35.97 21.07 86.59 49.33 148.43 0 0 14.87 11.11 17.32 19.43 2.02 6.86 4.58 11.41-1.46 17.22-6.04 5.81-16.72-3.6-17.92-3.29-1.8.48-9 13.67-15.99 10.73-5.5-2.31-11.34-8.88-11.92-14.53-1.53-14.97 10.66-24.1 8.91-27.93z"/><path d="M1154.088 426.357s79.85-376.26 86.5-392.09c.07-.16.02-.33-.11-.44-1.5-1.23-9.78-8.42-8.32-15.41 1.69-8.11 2.08-11.49 5.64-14.08 2.61-1.89 7.58-5.14 12.29-1.1 2.37 2.03 3.42 9.31 3.75 9.51.67.39 7.05-5.51 9.3-5.78 4.42-.52 10.82 1.18 10.7 7.11-.12 5.93-.68 14.22-5.34 17.47-4.21 2.93-8.99 5.07-9.88 5.46-.1.04-.17.12-.2.22-12.17 33.26-85.98 355.94-83.69 393.64 0 0 8.02 14.57 11.09 23.61 2.53 7.45.18 10-6.28 16.08-6.45 6.08-14.92-8.62-16.24-8.31-1.97.46-10.48 9.05-18.37 5.67-6.2-2.65-8.05-11.35-7.3-17.36.74-6.01 16.46-24.2 16.46-24.2z"/><path d="M1343.658 429.267c-79.63-347.79-66.12-332.23-65.14-347.56 0 0-12.43-3.19-14-10.87-1.65-8.12-2.62-11.38-.38-15.18 1.65-2.79 4.92-7.76 10.84-5.94 2.98.91 6.81 7.17 7.2 7.22.77.09 4.3-7.89 6.25-9.03 3.85-2.26 10.39-3.26 12.63 2.23 2.23 5.49 4.98 13.32 1.99 18.17l-7.02 9.09c1.78 34.56 51.35 314.01 68.35 347.73 0 0 13.11 10.15 19.49 17.21 5.26 5.82 4.11 9.11.58 17.27-3.52 8.17-17.09-1.92-18.18-1.11-1.63 1.21-6.05 12.51-14.61 12.58-6.74.05-11.86-7.18-13.55-13-1.69-5.81 5.55-28.81 5.55-28.81z"/><path d="M1284.358 340.327c-11.4 1.44-17.27-2.94-48.11.06 0 0-6.34 10.45-14.44 10.2-8.55-.26-11.95-.38-15.36-3.28-2.5-2.13-6.28-6.27-3.27-11.34 1.51-2.55 8.94-4.51 9.06-4.86.25-.69-6.75-5.82-7.52-7.88-1.53-4.06-.61-10.16 5.4-11.02 6.01-.86 14.45-1.3 18.77 2.53s7.39 8.6 7.39 8.6c14.11-5.21 34.71 2.94 54.48.6 0 0 10.91-11.72 16.66-11.57 4.74.13 7.6.19 10.2 6.33 2.6 6.15-6.46 11.61-6.48 12.63-.02 1.52 5.75 10.7 2.6 15.42-2.48 3.71-8.47 6.73-11.89 4.65-3.41-2.08-10.68-9.67-10.68-9.67l-6.81-1.4z"/><path d="M1462.518 36.907c17.26 57.1 60.57 210.72 63.43 223.13 0 0 11.51 2.17 15.2 9.07 3.9 7.29 3.27 10.73 2.21 15.02-.78 3.15-3.86 7.25-10.05 7.23-3.11-.01-7.63-6.35-8.01-6.28-.76.13-3.57 8.07-5.11 9.73-3.04 3.28-9.09 3.95-12.8-.66-3.71-4.61-5.64-12.28-4.16-17.79 1.48-5.51 5.87-9.89 5.87-9.89-11.59-32.57-55.97-191.81-70.57-226.65 0 0-14.7-8.2-17.93-17.18-2.66-7.4-3.09-10.78 3.25-16.97 6.35-6.19 16.16 5.5 17.47 5.17 1.96-.5 9.08-12.21 17.03-8.97 6.25 2.54 10.2 9.66 10.33 15.72.15 6.55-8.29 12.26-6.16 19.32z"/><path d="M1582.088 238.087s55.62-185.15 58.4-197.58c0 0 11.49-2.25 15.15-9.17 3.86-7.32 3.2-10.75 2.11-15.03-.8-3.14-3.9-7.22-10.09-7.17-3.11.03-7.59 6.4-7.97 6.34-.76-.13-3.62-8.05-5.18-9.7-3.06-3.26-9.12-3.89-12.8.74-3.68 4.63-5.57 12.31-4.05 17.82 1.52 5.51 5.93 9.85 5.93 9.85-11.39 32.64-54.54 162.03-59.28 194.91 0 0-16.62 2.13-20.96 10.22-2 3.73-7.35 9.94-2.13 16.64 5.56 7.13 16.28-.38 17.01.69 1.1 1.61 4.86 10.85 12.44 13.58 5.96 2.15 9.86-2.76 13.8-11.25 2.45-5.29-2.38-20.89-2.38-20.89z"/><path d="M1528.898 441.917c-2.71-11.26 6.98-75.08 4.44-106.25 0 0-10.95-6.6-10.53-14.76.45-8.62.65-12.05 3.81-15.43 2.32-2.48 6.78-6.21 12.1-3.08 2.68 1.58 4.6 9.1 4.97 9.24.72.26 6.32-6.69 8.52-7.43 4.34-1.46 10.79-.42 11.58 5.66.79 6.07 1.08 14.6-3.07 18.88-4.16 4.28-9.28 7.29-9.28 7.29 5.23 14.34-11.24 88.38-6.69 107.94 0 0 12.78 9.6 13.28 15.39.41 4.77.68 7.64-5.08 10.94-5.76 3.31-12.17-5.16-13.17-5.06-1.5.15-9.88 6.98-14.89 4.36-3.94-2.06-7.59-7.73-5.93-11.39 1.66-3.66 8.32-11.8 8.32-11.8l1.62-4.5z"/><path d="M1902.768 73.127c-17.68-37.86-71.48-67.55-132.67-28.78 0 0 .65 11.39-4.55 17.22-5.49 6.16-9.37 5.77-13.74 6.2-3.2.32-7.55-1.92-9.62-7.8-1.04-2.96 4.02-9.14 3.83-9.48-.38-.68-8.6-1.43-10.67-2.33-4.09-1.79-5.88-7.54-2.83-12.61 3.05-5.07 10.21-8.41 15.85-8.85 5.65-.45 11.02 3.03 11.02 3.03 45.24-44.95 122.65-37.08 163.49 36.94 0 0 16.73 4.59 21.3 14.87 3.19 7.18 6.13 13.01 2.52 17.1-5.87 6.65-17.19.05-18.18.98-1.48 1.39-4.6 13.12-13.11 14.17-6.69.82-12.59-5.78-14.92-11.36-7.3-17.67 2.28-29.3 2.28-29.3z"/><path d="M1746.048 118.427c14.26 44.41 84.18 96.66 140.43 149.7 0 0 11.19-1.66 17.4 3.06 6.57 4.98 6.52 8.91 7.33 13.26.6 3.19-1.23 7.76-6.86 10.35-2.83 1.31-9.38-3.24-9.7-3.01-.63.44-.66 8.77-1.37 10.93-1.41 4.26-6.93 6.57-12.2 3.95-5.28-2.62-9.2-9.52-10.14-15.15-.94-5.63 2.02-11.34 2.02-11.34-54.53-36.62-149.44-115.1-148.41-162.08 0 0-11.76-6.97-12.13-22.97-.18-7.87 3.24-15.5 8.52-16.78 8.59-2.08 14.59 5.56 15.93 5.36 2-.29 11.2-8.12 18.78-4.09 5.96 3.17 5.91 11.86 5.82 17.92-.17 11.69-8.16 16.67-15.42 20.89z"/><path d="M1854.128 437.807c35.43-6.85 84.13-45.73 57.64-96.77 0 0-11.28-.75-16.38-6.68-5.38-6.26-4.52-10.1-4.41-14.52.08-3.24 2.82-7.32 8.86-8.66 3.04-.68 8.49 5.16 8.86 5.01.71-.3 2.47-8.43 3.61-10.39 2.26-3.87 8.14-4.96 12.75-1.28 4.61 3.68 7.01 11.26 6.75 16.96-.26 5.71-4.34 10.66-4.34 10.66 28.24 52.82-1.55 114.39-69.46 126.61 0 0-7.04 12.97-15.45 15.85-5.88 2.01-16.12 2.17-18.93-1.41-4.59-5.83 1.91-16.76 1.29-17.72-.93-1.44-9.93-5.53-9.91-13.05.01-5.91 6.66-8.46 11.22-9.9 20.85-.72 15.89 8.71 27.9 5.29z"/><path d="M1772.248 444.957c-21.33-16.54-38.17-38.86-41.29-67.65 0 0-11.84 1.55-14.22-6.26-2.51-8.25-3.49-11.54-1.86-15.73 1.2-3.07 3.86-8.01 9.59-6.77 2.88.63 7.11 7.09 7.47 7.09.72.01 3.29-8.32 4.97-9.72 3.32-2.76 9.34-3.85 12.08 1.61s5.87 13.38 3.67 18.74c-2.21 5.36-7.19 8.01-7.19 8.01 8.53 36.07 16.28 37.5 34.83 57.03 0 0 12.19-5.99 17.73-4.44 4.57 1.28 7.33 2.03 8.39 8.63 1.06 6.6-9.05 9.7-9.31 10.68-.38 1.47 3.02 11.78-1.16 15.6-3.29 3-7.12 4.52-12.65 1.63-5.52-2.91-9.82-11.78-11.05-18.45z"/><path d="M773.848 267.717c-7.27-9.39-6.05-6.7-15.22-20.45 0 0-7.51 2.12-11.37-1.03-4.08-3.33-4.91-4.26-5.46-6.9-.4-1.94-.66-5.29 2.77-6.54 1.72-.63 6.1 1.24 6.3 1.12.38-.23-1.06-5.26-.65-6.51.81-2.47 3.61-4.99 6.87-3.14 3.26 1.85 7.56 4.81 8.2 8.23.64 3.42.31 6.8.31 6.8 12.43 14.42 17.01 21.1 17.01 21.1s9.59-2.17 11.81-.05c1.83 1.75 4.25 4.69 3.41 8.41-.84 3.73-6.79 4.68-7.1 5.14-.47.68-2.67 7.03-5.34 8.06-2.1.81-7.4-1.56-8.86-3.3-4.09-4.9-2.68-10.94-2.68-10.94z"/></g></svg>